<svg xmlns="http://www.w3.org/2000/svg" xmlns:xlink="http://www.w3.org/1999/xlink" viewBox="0 0 416.02 208.25"><defs><style>.cls-1{isolation:isolate;}.cls-2{fill:#fff;}.cls-3{opacity:0.94;}.cls-4{fill:url(#linear-gradient);}.cls-5{fill:url(#linear-gradient-2);}.cls-6{fill:url(#linear-gradient-3);}.cls-7{fill:url(#linear-gradient-4);}.cls-8{fill:url(#linear-gradient-5);}.cls-9{fill:url(#linear-gradient-6);}.cls-10{fill:url(#linear-gradient-7);}.cls-11{fill:url(#linear-gradient-8);}.cls-12{fill:url(#linear-gradient-9);}.cls-13{fill:url(#linear-gradient-10);}.cls-14{fill:#cec4d6;}.cls-15{fill:#e5dfe9;}.cls-16{fill:url(#linear-gradient-11);}.cls-17{fill:url(#linear-gradient-12);}.cls-18{fill:#5c479e;}.cls-19{fill:#aca5b5;}.cls-20{fill:#c0b8cc;}.cls-21{fill:#34254c;}.cls-22{fill:#51347f;}.cls-23{fill:url(#linear-gradient-13);}.cls-24{fill:url(#linear-gradient-14);}.cls-25{fill:url(#linear-gradient-15);}.cls-26{fill:url(#linear-gradient-16);}.cls-27{fill:url(#linear-gradient-17);}.cls-28{fill:url(#linear-gradient-18);}.cls-29{fill:url(#linear-gradient-19);}.cls-30{fill:url(#linear-gradient-20);}.cls-31{fill:url(#linear-gradient-21);}.cls-32{fill:url(#linear-gradient-22);}.cls-33{fill:url(#linear-gradient-23);}.cls-34{fill:url(#linear-gradient-24);}.cls-35{fill:url(#linear-gradient-25);}.cls-36{fill:url(#linear-gradient-26);}.cls-37{fill:#c8b8d3;}.cls-38{fill:url(#linear-gradient-27);}.cls-39{fill:url(#linear-gradient-28);}.cls-40{fill:url(#linear-gradient-29);}.cls-41{fill:url(#linear-gradient-30);}.cls-42{fill:url(#linear-gradient-31);}.cls-43{fill:url(#linear-gradient-32);}.cls-44{fill:url(#linear-gradient-33);}.cls-45{fill:url(#linear-gradient-34);}.cls-46{fill:url(#linear-gradient-35);}.cls-47{fill:#2d2244;}.cls-48{fill:url(#linear-gradient-36);}.cls-49{fill:url(#linear-gradient-37);}.cls-50{fill:url(#linear-gradient-38);}.cls-51{fill:url(#linear-gradient-39);}.cls-52{fill:url(#linear-gradient-40);}.cls-53{fill:url(#linear-gradient-41);}.cls-54{fill:url(#linear-gradient-42);}.cls-55{fill:url(#linear-gradient-43);}.cls-56{fill:url(#linear-gradient-44);}.cls-57{fill:url(#linear-gradient-45);}.cls-58{fill:url(#linear-gradient-46);}.cls-59{fill:url(#linear-gradient-47);}.cls-60{fill:url(#linear-gradient-48);}.cls-61{fill:url(#linear-gradient-49);}.cls-62{fill:url(#linear-gradient-50);}.cls-63{fill:url(#linear-gradient-51);}.cls-64{fill:url(#linear-gradient-52);}.cls-65{fill:url(#linear-gradient-53);}.cls-66{fill:url(#linear-gradient-54);}.cls-67{fill:url(#linear-gradient-55);}.cls-68{fill:url(#linear-gradient-56);}.cls-69{fill:url(#linear-gradient-57);}.cls-70{fill:url(#linear-gradient-58);}.cls-71{fill:url(#linear-gradient-59);}.cls-72{fill:url(#linear-gradient-60);}.cls-73{fill:url(#linear-gradient-61);}.cls-74{fill:url(#linear-gradient-62);}.cls-75{fill:url(#linear-gradient-63);}.cls-76{fill:url(#linear-gradient-64);}.cls-77{fill:url(#linear-gradient-65);}.cls-78{fill:url(#linear-gradient-66);}.cls-79{fill:#988ca5;}.cls-80{fill:url(#linear-gradient-67);}.cls-81{fill:url(#linear-gradient-68);}.cls-82,.cls-83{mix-blend-mode:overlay;}.cls-82{fill:url(#linear-gradient-69);}.cls-83{opacity:0.57;fill:url(#linear-gradient-70);}</style><linearGradient id="linear-gradient" x1="184.44" y1="123.53" x2="231.86" y2="123.53" gradientTransform="matrix(1, -0.07, 0.07, 1, -12.6, -41.79)" gradientUnits="userSpaceOnUse"><stop offset="0" stop-color="#34254c"/><stop offset="1" stop-color="#51397f"/></linearGradient><linearGradient id="linear-gradient-2" x1="176.57" y1="178.07" x2="231.68" y2="178.07" gradientTransform="matrix(1, -0.07, 0.07, 1, -12.6, -41.79)" gradientUnits="userSpaceOnUse"><stop offset="0" stop-color="#e1dae5"/><stop offset="1" stop-color="#f7f4f9"/></linearGradient><linearGradient id="linear-gradient-3" x1="159.92" y1="152.6" x2="175.43" y2="152.6" gradientTransform="matrix(1, -0.07, 0.07, 1, -12.6, -41.79)" gradientUnits="userSpaceOnUse"><stop offset="0" stop-color="#c8b8d3"/><stop offset="1" stop-color="#c8b8d3" stop-opacity="0.3"/></linearGradient><linearGradient id="linear-gradient-4" x1="157.77" y1="167.47" x2="223.01" y2="167.47" xlink:href="#linear-gradient-3"/><linearGradient id="linear-gradient-5" x1="180.88" y1="216.65" x2="194.28" y2="216.65" gradientTransform="matrix(1, -0.07, 0.07, 1, -12.6, -41.79)" gradientUnits="userSpaceOnUse"><stop offset="0" stop-color="#c8b8d3" stop-opacity="0.9"/><stop offset="1" stop-color="#c8b8d3" stop-opacity="0.3"/></linearGradient><linearGradient id="linear-gradient-6" x1="192.16" y1="188.69" x2="232.8" y2="188.69" xlink:href="#linear-gradient-5"/><linearGradient id="linear-gradient-7" x1="227.41" y1="209.43" x2="245.02" y2="209.43" xlink:href="#linear-gradient-5"/><linearGradient id="linear-gradient-8" x1="255.65" y1="177.21" x2="240.04" y2="185.41" gradientTransform="matrix(1, -0.07, 0.07, 1, -12.6, -41.79)" gradientUnits="userSpaceOnUse"><stop offset="0" stop-color="#fff"/><stop offset="1" stop-color="#fff" stop-opacity="0"/></linearGradient><linearGradient id="linear-gradient-9" x1="182.46" y1="124.47" x2="192.87" y2="141.74" xlink:href="#linear-gradient-3"/><linearGradient id="linear-gradient-10" x1="234.48" y1="115.62" x2="225.34" y2="131.86" xlink:href="#linear-gradient-8"/><linearGradient id="linear-gradient-11" x1="183.83" y1="165.88" x2="223.85" y2="165.88" xlink:href="#linear-gradient"/><linearGradient id="linear-gradient-12" x1="190.75" y1="167.13" x2="237.87" y2="165.16" gradientTransform="matrix(1, -0.07, 0.07, 1, -12.6, -41.79)" gradientUnits="userSpaceOnUse"><stop offset="0" stop-color="#2d2244"/><stop offset="1" stop-color="#3e2c5e" stop-opacity="0"/></linearGradient><linearGradient id="linear-gradient-13" x1="187.81" y1="123.5" x2="195.69" y2="149.47" gradientTransform="matrix(1, -0.07, 0.07, 1, -12.6, -41.79)" gradientUnits="userSpaceOnUse"><stop offset="0" stop-color="#ce1d3b"/><stop offset="1" stop-color="#ed202e"/></linearGradient><linearGradient id="linear-gradient-14" x1="222.08" y1="111.8" x2="226.91" y2="133.98" xlink:href="#linear-gradient-13"/><linearGradient id="linear-gradient-15" x1="194.52" y1="150.49" x2="217.75" y2="149.02" gradientTransform="matrix(1, -0.07, 0.07, 1, -12.6, -41.79)" gradientUnits="userSpaceOnUse"><stop offset="0" stop-color="#a193ad"/><stop offset="1" stop-color="#cec4d6"/></linearGradient><linearGradient id="linear-gradient-16" x1="211.27" y1="159.04" x2="208.1" y2="134.48" xlink:href="#linear-gradient-2"/><linearGradient id="linear-gradient-17" x1="195.63" y1="161.59" x2="208.35" y2="150.02" gradientTransform="matrix(1, -0.07, 0.07, 1, -12.6, -41.79)" gradientUnits="userSpaceOnUse"><stop offset="0" stop-color="#cec4d6"/><stop offset="1" stop-color="#cec4d6" stop-opacity="0"/></linearGradient><linearGradient id="linear-gradient-18" x1="201.68" y1="156.58" x2="200" y2="145.23" gradientTransform="matrix(1, -0.07, 0.07, 1, -12.6, -41.79)" gradientUnits="userSpaceOnUse"><stop offset="0" stop-color="#34254c"/><stop offset="1" stop-color="#432a68"/></linearGradient><linearGradient id="linear-gradient-19" x1="209.24" y1="155.46" x2="207.55" y2="144.11" xlink:href="#linear-gradient-18"/><linearGradient id="linear-gradient-20" x1="204.33" y1="152.05" x2="203.51" y2="143.38" xlink:href="#linear-gradient-15"/><linearGradient id="linear-gradient-21" x1="214.86" y1="145.7" x2="217.8" y2="142.55" gradientTransform="matrix(1, -0.07, 0.07, 1, -12.6, -41.79)" gradientUnits="userSpaceOnUse"><stop offset="0" stop-color="#3492b7"/><stop offset="1" stop-color="#4cc8e5"/></linearGradient><linearGradient id="linear-gradient-22" x1="215.83" y1="150.66" x2="219.14" y2="150.66" gradientTransform="matrix(1, -0.07, 0.07, 1, -12.6, -41.79)" gradientUnits="userSpaceOnUse"><stop offset="0" stop-color="#d733db"/><stop offset="1" stop-color="#f43ef9"/></linearGradient><linearGradient id="linear-gradient-23" x1="216.41" y1="131.53" x2="222.54" y2="129.94" gradientTransform="matrix(1, -0.07, 0.07, 1, -12.6, -41.79)" gradientUnits="userSpaceOnUse"><stop offset="0" stop-color="#1e45a5"/><stop offset="1" stop-color="#2265c6"/></linearGradient><linearGradient id="linear-gradient-24" x1="190.62" y1="135.74" x2="202.18" y2="132.9" xlink:href="#linear-gradient"/><linearGradient id="linear-gradient-25" x1="193.19" y1="120.97" x2="223.72" y2="120.97" xlink:href="#linear-gradient"/><linearGradient id="linear-gradient-26" x1="189.53" y1="112.36" x2="186.16" y2="113.2" xlink:href="#linear-gradient-2"/><linearGradient id="linear-gradient-27" x1="223.73" y1="104" x2="226.68" y2="103.39" xlink:href="#linear-gradient-2"/><linearGradient id="linear-gradient-28" x1="197.06" y1="89.57" x2="206.84" y2="89.57" xlink:href="#linear-gradient-2"/><linearGradient id="linear-gradient-29" x1="191.06" y1="108.47" x2="224.18" y2="97.32" xlink:href="#linear-gradient-2"/><linearGradient id="linear-gradient-30" x1="199.61" y1="118.52" x2="207.81" y2="89.45" gradientTransform="matrix(1, -0.07, 0.07, 1, -12.6, -41.79)" gradientUnits="userSpaceOnUse"><stop offset="0" stop-color="#c8b8d3"/><stop offset="1" stop-color="#c8b8d3" stop-opacity="0"/></linearGradient><linearGradient id="linear-gradient-31" x1="199.04" y1="123.1" x2="216.38" y2="118.78" xlink:href="#linear-gradient-2"/><linearGradient id="linear-gradient-32" x1="188.75" y1="112.2" x2="228.81" y2="105.05" gradientTransform="matrix(1, -0.07, 0.07, 1, -12.6, -41.79)" gradientUnits="userSpaceOnUse"><stop offset="0" stop-color="#201d21"/><stop offset="1" stop-color="#524b56"/></linearGradient><linearGradient id="linear-gradient-33" x1="183.41" y1="111.18" x2="202.12" y2="110.15" gradientTransform="matrix(1, -0.07, 0.07, 1, -12.6, -41.79)" gradientUnits="userSpaceOnUse"><stop offset="0" stop-color="#111011"/><stop offset="1" stop-color="#111011" stop-opacity="0"/></linearGradient><linearGradient id="linear-gradient-34" x1="210.93" y1="95.09" x2="216.19" y2="110.54" gradientTransform="matrix(1, -0.07, 0.07, 1, -12.6, -41.79)" gradientUnits="userSpaceOnUse"><stop offset="0" stop-color="#ede7f2"/><stop offset="1" stop-color="#ede7f2" stop-opacity="0"/></linearGradient><linearGradient id="linear-gradient-35" x1="218.3" y1="107.06" x2="223.55" y2="114.31" xlink:href="#linear-gradient-34"/><linearGradient id="linear-gradient-36" x1="229.15" y1="181.52" x2="250" y2="181.52" xlink:href="#linear-gradient"/><linearGradient id="linear-gradient-37" x1="189.41" y1="195.77" x2="167.88" y2="182.29" xlink:href="#linear-gradient"/><linearGradient id="linear-gradient-38" x1="240.77" y1="147.76" x2="238.57" y2="128.36" xlink:href="#linear-gradient"/><linearGradient id="linear-gradient-39" x1="176.38" y1="145.77" x2="180.06" y2="145.77" xlink:href="#linear-gradient"/><linearGradient id="linear-gradient-40" x1="190.83" y1="135.35" x2="202.4" y2="132.51" xlink:href="#linear-gradient-15"/><linearGradient id="linear-gradient-41" x1="174.27" y1="146.4" x2="155.66" y2="127.95" xlink:href="#linear-gradient-2"/><linearGradient id="linear-gradient-42" x1="155.64" y1="123.92" x2="160.83" y2="123.92" xlink:href="#linear-gradient-2"/><linearGradient id="linear-gradient-43" x1="151.66" y1="130.79" x2="157.23" y2="130.79" xlink:href="#linear-gradient-2"/><linearGradient id="linear-gradient-44" x1="148.31" y1="139.96" x2="156.43" y2="139.96" xlink:href="#linear-gradient-2"/><linearGradient id="linear-gradient-45" x1="148.8" y1="148.19" x2="158.77" y2="148.19" xlink:href="#linear-gradient-2"/><linearGradient id="linear-gradient-46" x1="168" y1="127.74" x2="163.74" y2="143.51" xlink:href="#linear-gradient-3"/><linearGradient id="linear-gradient-47" x1="180.21" y1="143.7" x2="167.59" y2="134.66" xlink:href="#linear-gradient-3"/><linearGradient id="linear-gradient-48" x1="172.18" y1="125.79" x2="173.23" y2="120.01" xlink:href="#linear-gradient"/><linearGradient id="linear-gradient-49" x1="156.95" y1="125.2" x2="160.83" y2="125.2" xlink:href="#linear-gradient"/><linearGradient id="linear-gradient-50" x1="152.37" y1="131.4" x2="157.18" y2="131.4" xlink:href="#linear-gradient"/><linearGradient id="linear-gradient-51" x1="152.53" y1="141.26" x2="156.43" y2="141.26" xlink:href="#linear-gradient"/><linearGradient id="linear-gradient-52" x1="154.01" y1="148.97" x2="158.77" y2="148.97" xlink:href="#linear-gradient"/><linearGradient id="linear-gradient-53" x1="-2170.68" y1="203.48" x2="-2189.29" y2="185.03" gradientTransform="matrix(-0.99, 0.12, 0.12, 0.99, -1940.93, 138.24)" xlink:href="#linear-gradient-2"/><linearGradient id="linear-gradient-54" x1="-2189.31" y1="181" x2="-2184.11" y2="181" gradientTransform="matrix(-0.99, 0.12, 0.12, 0.99, -1940.93, 138.24)" xlink:href="#linear-gradient-2"/><linearGradient id="linear-gradient-55" x1="-2193.29" y1="187.88" x2="-2187.72" y2="187.88" gradientTransform="matrix(-0.99, 0.12, 0.12, 0.99, -1940.93, 138.24)" xlink:href="#linear-gradient-2"/><linearGradient id="linear-gradient-56" x1="-2196.64" y1="197.05" x2="-2188.52" y2="197.05" gradientTransform="matrix(-0.99, 0.12, 0.12, 0.99, -1940.93, 138.24)" xlink:href="#linear-gradient-2"/><linearGradient id="linear-gradient-57" x1="-2196.15" y1="205.28" x2="-2186.18" y2="205.28" gradientTransform="matrix(-0.99, 0.12, 0.12, 0.99, -1940.93, 138.24)" xlink:href="#linear-gradient-2"/><linearGradient id="linear-gradient-58" x1="-2176.95" y1="184.83" x2="-2181.21" y2="200.6" gradientTransform="matrix(-0.99, 0.12, 0.12, 0.99, -1940.93, 138.24)" xlink:href="#linear-gradient-3"/><linearGradient id="linear-gradient-59" x1="-2164.74" y1="200.79" x2="-2177.35" y2="191.75" gradientTransform="matrix(-0.99, 0.12, 0.12, 0.99, -1940.93, 138.24)" xlink:href="#linear-gradient-3"/><linearGradient id="linear-gradient-60" x1="-2172.77" y1="182.88" x2="-2171.72" y2="177.09" gradientTransform="matrix(-0.99, 0.12, 0.12, 0.99, -1940.93, 138.24)" xlink:href="#linear-gradient"/><linearGradient id="linear-gradient-61" x1="-2188" y1="182.28" x2="-2184.11" y2="182.28" gradientTransform="matrix(-0.99, 0.12, 0.12, 0.99, -1940.93, 138.24)" xlink:href="#linear-gradient"/><linearGradient id="linear-gradient-62" x1="-2192.58" y1="188.49" x2="-2187.77" y2="188.49" gradientTransform="matrix(-0.99, 0.12, 0.12, 0.99, -1940.93, 138.24)" xlink:href="#linear-gradient"/><linearGradient id="linear-gradient-63" x1="-2192.42" y1="198.35" x2="-2188.52" y2="198.35" gradientTransform="matrix(-0.99, 0.12, 0.12, 0.99, -1940.93, 138.24)" xlink:href="#linear-gradient"/><linearGradient id="linear-gradient-64" x1="-2190.94" y1="206.06" x2="-2186.18" y2="206.06" gradientTransform="matrix(-0.99, 0.12, 0.12, 0.99, -1940.93, 138.24)" xlink:href="#linear-gradient"/><linearGradient id="linear-gradient-65" x1="234" y1="218.05" x2="270.63" y2="218.05" xlink:href="#linear-gradient-2"/><linearGradient id="linear-gradient-66" x1="233" y1="242.53" x2="275.58" y2="207.05" gradientTransform="matrix(1, -0.07, 0.07, 1, -12.6, -41.79)" gradientUnits="userSpaceOnUse"><stop offset="0" stop-color="#bbaec4"/><stop offset="1" stop-color="#ded1e8"/></linearGradient><linearGradient id="linear-gradient-67" x1="-3100.82" y1="1230.11" x2="-3064.18" y2="1230.11" gradientTransform="matrix(-0.82, 0.57, 0.57, 0.82, -3060.33, 942.99)" xlink:href="#linear-gradient-2"/><linearGradient id="linear-gradient-68" x1="144.55" y1="243.86" x2="194.64" y2="236.76" xlink:href="#linear-gradient-66"/><linearGradient id="linear-gradient-69" x1="262.99" y1="143.75" x2="158.81" y2="215.73" gradientTransform="matrix(1, -0.07, 0.07, 1, -12.6, -41.79)" gradientUnits="userSpaceOnUse"><stop offset="0" stop-color="#04074a"/><stop offset="0.89" stop-opacity="0"/></linearGradient><linearGradient id="linear-gradient-70" x1="253.61" y1="140.14" x2="150.18" y2="237.13" gradientTransform="matrix(1, -0.07, 0.07, 1, -12.6, -41.79)" gradientUnits="userSpaceOnUse"><stop offset="0" stop-color="#04074a"/><stop offset="1" stop-color="#04074a"/></linearGradient></defs><g class="cls-1"><g id="OBJECTS"><path class="cls-2" d="M78.51,176V141.26H0V117L76,4h31.26V117h19.53v24.31H107.21V176Zm1-59.07L81.2,33,27.47,117Z"/><g class="cls-3"><path class="cls-2" d="M367.79,176V141.26H289.27V117L365.22,4h31.26V117H416v24.31H396.48V176Zm1-59.07,1.71-84-53.72,84Z"/></g><g class="cls-3"><path class="cls-2" d="M272.63,91.8q0,41.4-17.16,64.82t-47.19,23.43q-30.4,0-47.32-23.66T144.05,89.91q0-42.46,17.1-66.19T208.65,0Q239.42,0,256,23.78T272.63,91.8Zm-64.84,63.93q17.82,0,26.8-16.54t9-49.52q0-32-8.86-48.81T208.89,24.08q-17.7,0-26.74,16.72t-9,49.34q0,31.67,9,48.63T207.79,155.73Z"/></g><path class="cls-4" d="M181.85,77.91s-2.68-8.16-1.81-9.32,12.71-6.31,27.81-9.52,15.82-2,17-1.12,2.59,10.09,2.56,12S181.85,77.91,181.85,77.91Z"/><path class="cls-5" d="M253.41,139.69l-1,2.31L245,158.15l-7,15.47c-3.48-2.45-4.57-11.38-4.4-18.19a54.6,54.6,0,0,0-.77-11.33,14.94,14.94,0,0,1-5.14-4.54,26.75,26.75,0,0,1-2.07-3.22h0c-.45-.81-.68-1.35-.68-1.35-8.19.41-13.77-4.9-15.1-5.76s-3.79-.06-6.26,5.48c-2.22,5-7.85,7-8.95,7.37l-.19,0c-.24,1.34-.49,2.55-.75,3.64-2.09,8.83-4.64,10-4.64,10-.28,2.86,1.43,7,2,12.35a106.79,106.79,0,0,1,0,13.6l-7.37-4.58-14.42-9s-5.46-12.91-5.12-17.2a12.16,12.16,0,0,1,.73-3.26,15.55,15.55,0,0,1,1.39-2.83h0a12.33,12.33,0,0,1,1-1.39s0-.69,0-1.76c0-.48,0-1,.08-1.65a33.76,33.76,0,0,1,.62-4.55,11,11,0,0,1,.33-1.16,12.68,12.68,0,0,1,.84-1.9,13,13,0,0,1,1-1.55h0l0-.05,0,0h0v0l0-.05a.76.76,0,0,1,.08-.11l.08-.1c.09-.13.19-.25.28-.36a14.49,14.49,0,0,1,1.11-1.23h0s.33-1.13.77-2.74c.34-1.26.74-2.8,1.12-4.34.87-3.54.78-4.8,3-6.53s2.77-3.14,4.07-4.18h0l.06-.05c.76-.58,2.14-1.45,3.21-2.11h0c.83-.51,1.47-.88,1.47-.88a14.11,14.11,0,0,1,.79-4.64,6.25,6.25,0,0,1-.64-1.5c-.21-.67-.34-1.28-.34-1.28-.37.25-.73.47-1.08.67h0c-3.82,2.16-6.53,1.42-6.53,1.42a15.6,15.6,0,0,1-3,.92,14.21,14.21,0,0,1-3.87.18A18.75,18.75,0,0,1,160,98.64l3.33-4.71,7.34-10.4a8.58,8.58,0,0,1,2.92,1h0a6.76,6.76,0,0,1,.6.43h0l.26.23a3.41,3.41,0,0,1,.62.78h0l0,0h0a6.14,6.14,0,0,1,.1-.68,4.52,4.52,0,0,1,.43-1.26,2,2,0,0,1,.11-.2,3.05,3.05,0,0,1,.68-.76,2,2,0,0,1,.83-.4c0-.21,0-.42.07-.62,1-7.66,6-7.85,6-7.85,1-5.76,6.87-5.84,6.87-5.84s1.24.29,3.18.56h0A40.19,40.19,0,0,0,206.07,69a17.51,17.51,0,0,0,9.71-5.4,10.57,10.57,0,0,0,1.05-1.34c4.83-1.12,8.56,4.94,8.56,4.94,2.76,0,5,1.85,6.25,3.23a11.6,11.6,0,0,1,1.18,1.48l.1-.11a7.42,7.42,0,0,1,1-1.06h0l0,0h0l.19-.15h0A9.56,9.56,0,0,1,236,69.38a10.64,10.64,0,0,1,2.79-.92l6.5,13.46,1.41,2.91a10.09,10.09,0,0,1-5.33,6.52,12.08,12.08,0,0,1-1.3.57,9,9,0,0,1-1,.3c-3.66.85-7.67-.78-10-2h0l-.09,0,0,0-.15-.09a16.91,16.91,0,0,1-1.57-.93,12.77,12.77,0,0,1,.54,2h0c0,.13.05.26.07.39a23.11,23.11,0,0,1,.11,6,19.24,19.24,0,0,1,1.13,4.57,4.38,4.38,0,0,1-.41,2.91s0,0,0,.06a2.58,2.58,0,0,1,.36-.2h0a6.78,6.78,0,0,1,1.28-.44l.26-.06h0a7.66,7.66,0,0,1,1.07-.15h0a13.63,13.63,0,0,1,5.63.82h0l.18.07.34.12c6,2.28,8.56,11.91,8.56,11.91a10.22,10.22,0,0,1,2.66,2.81,17.74,17.74,0,0,1,3.16,8.33C252.7,133.89,253.41,139.69,253.41,139.69Z"/><path class="cls-6" d="M170.83,103.91A18.75,18.75,0,0,1,160,98.64l3.33-4.71a13.72,13.72,0,0,0,7.12,4.95,10.38,10.38,0,0,0,3.32.29A16.47,16.47,0,0,1,170.83,103.91Z"/><path class="cls-7" d="M224.92,104.33l-5,7.59s-4.42,7.12-12.68,6.42-15.74-8.25-21.67-4.84-9.37,11.07-9.37,11.07l3.41-1s-6,4-7.06,6.46a1.14,1.14,0,0,0,.17,1.43l-3.61,1.06a13,13,0,0,1,1-1.55h0l0-.05,0,0h0v0l0-.05a.76.76,0,0,1,.08-.11l.08-.1c.09-.13.19-.25.28-.36a14.49,14.49,0,0,1,1.11-1.23h0s.33-1.13.77-2.74c.34-1.26.74-2.8,1.12-4.34.87-3.54.78-4.8,3-6.53s2.77-3.14,4.07-4.18h0l.06-.05c.76-.58,2.14-1.45,3.21-2.11h0c.83-.51,1.47-.88,1.47-.88a14.11,14.11,0,0,1,.79-4.64,6.25,6.25,0,0,1-.64-1.5c-.21-.67-.34-1.28-.34-1.28-.37.25-.73.47-1.08.67h0c-3.82,2.16-6.53,1.42-6.53,1.42a15.6,15.6,0,0,1-3,.92,18,18,0,0,0,1.84-5.18,7.7,7.7,0,0,0,2.07-1.18,4.08,4.08,0,0,0,3.56,1.18c2.51-.17,7.42-2.4,7.39-5.08a17.71,17.71,0,0,0,12.05,12.14C211.63,108.72,220.76,105.88,224.92,104.33Z"/><path class="cls-8" d="M189.07,155.78c-.28,2.86,1.43,7,2,12.35a106.79,106.79,0,0,1,0,13.6l-7.37-4.58c1.71-4.68-.51-11.76-.74-17-.28-6.46,3.65-6.73,3.65-6.73a10.89,10.89,0,0,1,3.36-12.1,22.14,22.14,0,0,1,3.81,4.45C191.62,154.6,189.07,155.78,189.07,155.78Z"/><path class="cls-9" d="M228.73,129.1a26.09,26.09,0,0,0-3.09,7.24c-.45-.81-.68-1.35-.68-1.35-8.19.41-13.77-4.9-15.1-5.76s-3.79-.06-6.26,5.48c-2.22,5-7.85,7-8.95,7.37-.47-.61-1.25-1.59-2.29-2.73,1.93-1.92,3.55-4.65,6.21-8.88a14.48,14.48,0,0,1,10-7c3.43-.71,5,1.4,12.82,4.82A12.19,12.19,0,0,0,228.73,129.1Z"/><path class="cls-10" d="M245,158.15l-7,15.47c-3.48-2.45-4.57-11.38-4.4-18.19a54.6,54.6,0,0,0-.77-11.33,14.94,14.94,0,0,1-5.14-4.54,60.81,60.81,0,0,1,6.69-10.85c-1.12,4.56,1.09,8.1,3.7,11.24a46,46,0,0,0,.57,13.08C239.56,157,242.85,158,245,158.15Z"/><path class="cls-11" d="M253.41,139.69l-1,2.31c-2-2.2-3.7-6.88-4.61-13.3-1.23-8.77-6.63-10-6.63-10,2.14-7-2.75-12.65-3.69-13.64l.34.12c6,2.28,8.56,11.91,8.56,11.91a10.22,10.22,0,0,1,2.66,2.81,17.74,17.74,0,0,1,3.16,8.33C252.7,133.89,253.41,139.69,253.41,139.69Z"/><path class="cls-12" d="M187.09,73.4c.53,3.13,5.75,3.25,5.75,3.25-3.25,1-6,.72-9.31.16s-5.64,5.44-4.73,5.83,1.78,2,1.78,2c-2.61-1.24-3,0-2.18,2.84a24.18,24.18,0,0,1,.49,7.08c-.52-2.9-2.42-6.82-3.64-9.13a4.52,4.52,0,0,1,.43-1.26,2,2,0,0,1,.11-.2,3.05,3.05,0,0,1,.68-.76,2,2,0,0,1,.83-.4c0-.21,0-.42.07-.62,1-7.66,6-7.85,6-7.85,1-5.76,6.87-5.84,6.87-5.84s1.24.29,3.18.56C191,68.7,186.56,70.28,187.09,73.4Z"/><path class="cls-13" d="M232.92,71.75l-.12.59a10.6,10.6,0,0,0-8.37-3.06c-.61,2.72-5.32,3.2-5.32,3.2s3.66-2,3.19-4.32-6.47-4.46-6.47-4.46a.88.88,0,0,1-.05-.15,10.57,10.57,0,0,0,1.05-1.34c4.83-1.12,8.56,4.94,8.56,4.94,2.76,0,5,1.85,6.25,3.23a11.6,11.6,0,0,1,1.18,1.48Z"/><path class="cls-14" d="M171.11,135.83c-.11.27-3.69,8.89-6.29,11.91h0a15.55,15.55,0,0,1,1.39-2.83h0a12.33,12.33,0,0,1,1-1.39s0-.69,0-1.76c0-.48,0-1,.08-1.65A12.31,12.31,0,0,0,171.11,135.83Z"/><path class="cls-15" d="M236.36,87.75A25.85,25.85,0,0,0,239,92.22c-3.66.85-7.67-.78-10-2h0l-.09,0,0,0-.15-.09a16.91,16.91,0,0,1-1.57-.93,12.77,12.77,0,0,1,.54,2h0c0,.13.05.26.07.39C223.12,85,221,76.42,220.94,76c.14.41,3.15,8.85,10.4,11.13A12.81,12.81,0,0,0,236.36,87.75Z"/><path class="cls-15" d="M246.67,84.83a10.09,10.09,0,0,1-5.33,6.52,25.39,25.39,0,0,1-2.51-4.12,12.76,12.76,0,0,0,6.43-5.31Z"/><path class="cls-16" d="M230.27,104.39h0s-6.72,3.77-7.79,5-2,3-7.17,4.63a35.69,35.69,0,0,1-4.36,1c-4.49.76-10.08.8-14.66-1.79a13,13,0,0,0-5.86-4.85,49.78,49.78,0,0,0,6.06.94l.57,0c.31,0,.6,0,.86,0a2.94,2.94,0,0,1,1-.87,16.66,16.66,0,0,1,3.81-.22h.73c1.07,0,2.26,0,3.5-.16s2.17-.22,3.14-.35l.73-.1c1.73-.25,3-.49,3.33-.51a2.62,2.62,0,0,1,1.82.69l.14.12.48-.17c.58-.21,1.63-.6,2.91-1.1l.54-.21c.37-.15.76-.3,1.15-.47l.4-.16h0c1-.41,2-.85,3-1.31l.31-.15a28.65,28.65,0,0,0,4.13-2.3c0,.23,0,.45,0,.65a3.85,3.85,0,0,1-.45,2.26s0,0,0,.06a2.58,2.58,0,0,1,.36-.2h0A6.78,6.78,0,0,1,230.27,104.39Z"/><path class="cls-17" d="M229.1,102.71c-1.65,1-7.62,4.54-12.41,5.74l-.08,2.11c0-.22-.06-2.63-5-1.84a77,77,0,0,1-10.22.85s1.39,6.12,9.54,5.46c-4.49.76-10.08.8-14.66-1.79a13,13,0,0,0-5.86-4.85,49.78,49.78,0,0,0,6.06.94l.57,0c.31,0,.6,0,.86,0a2.94,2.94,0,0,1,1-.87,16.66,16.66,0,0,1,3.81-.22h.73c1.07,0,2.26,0,3.5-.16s2.17-.22,3.14-.35l.73-.1c1.73-.25,3-.49,3.33-.51a2.62,2.62,0,0,1,1.82.69l.14.12.48-.17c.58-.21,1.63-.6,2.91-1.1l.54-.21c.37-.15.76-.3,1.15-.47l.4-.16h0c1-.41,2-.85,3-1.31l.31-.15a28.65,28.65,0,0,0,4.13-2.3C229.08,102.29,229.09,102.51,229.1,102.71Z"/><path class="cls-18" d="M203.5,108.24v6.56l-.74-6.55Z"/><path class="cls-18" d="M210.87,107.63l-.28,6.69-.45-6.59Z"/><path class="cls-18" d="M197.06,109.35l-.38,2.76-.19-2.78Z"/><path class="cls-18" d="M216.32,112.66c0-1.9-.2-3.87-.3-4.85l.14.12.48-.17A19.38,19.38,0,0,1,216.32,112.66Z"/><path class="cls-18" d="M220.09,106.45l-.28,4.08-.26-3.87Z"/><path class="cls-18" d="M221.64,105.82l-.2,3-.2-2.86Z"/><path class="cls-18" d="M224.93,104.36l-.16,2.35-.15-2.2Z"/><path class="cls-19" d="M201.19,115.59c-3.41,1-7.43-6.92-14-6.31a22,22,0,0,0-6.41,1.9l.06-.05c.76-.58,2.14-1.45,3.21-2.11h0a12.83,12.83,0,0,1,5.75-.7C194.54,108.56,197.84,115.19,201.19,115.59Z"/><path class="cls-19" d="M237.26,105c-9.28-1.16-18.06,8.1-18.06,8.1,3.82-4.94,7.19-7.15,9.45-8.13l.32-.14h0a10.69,10.69,0,0,1,1.54-.5h0a4.35,4.35,0,0,1,1.07-.15h0A13.63,13.63,0,0,1,237.26,105Z"/><polygon class="cls-19" points="170.08 130.94 170.08 130.94 170.08 130.95 170.08 130.94"/><path class="cls-19" d="M179.6,123.55a24.58,24.58,0,0,0-9.48,7.34,13.62,13.62,0,0,1,1.63-1.91s.33-1.13.77-2.74A35.9,35.9,0,0,1,179.6,123.55Z"/><path class="cls-19" d="M169.17,139.75a18.53,18.53,0,0,1-2.95,5.16,12.33,12.33,0,0,1,1-1.39s0-.69,0-1.76A6.8,6.8,0,0,0,169.17,139.75Z"/><path class="cls-20" d="M234,70.69c-.36.32-3.33,3.32-2.42,12.33,0,0-1.9-6.74.11-12.64a11.6,11.6,0,0,1,1.18,1.48A7.87,7.87,0,0,1,234,70.69Z"/><path class="cls-19" d="M234,70.67h0Z"/><path class="cls-19" d="M175.13,86a7.94,7.94,0,0,0-.88-1A3.38,3.38,0,0,1,175.13,86Z"/><path class="cls-19" d="M178.89,94.51c-1.44-4.64-2.78-7.13-3.74-8.45h0a5.14,5.14,0,0,1,.53-1.94A35.42,35.42,0,0,1,178.89,94.51Z"/><path class="cls-19" d="M180.55,84.12a4.17,4.17,0,0,0-4.08-1,2,2,0,0,1,.83-.4c0-.21,0-.42.07-.62A5,5,0,0,1,180.55,84.12Z"/><path class="cls-19" d="M189.68,97.57a39.76,39.76,0,0,1-4,4.42c-.21-.67-.34-1.28-.34-1.28C185,101,189.68,97.57,189.68,97.57Z"/><path class="cls-19" d="M227.21,89.16a12.77,12.77,0,0,1,.54,2,14.72,14.72,0,0,1-2.85-5.19,10.21,10.21,0,0,0,3.88,4.17A16.91,16.91,0,0,1,227.21,89.16Z"/><path class="cls-21" d="M194.27,101.09l1.5,2.23c-2.4,1.9-6.66,4.4-9,4.72s-3.79-.06-4-1.46c-.19-1.07,1.7-2.9,2.62-3.72l.48-.41.49,1s-2.78,2.86-.91,3.2l.19,0c2.23.17,8.61-5.82,8.61-5.82"/><path class="cls-22" d="M185.39,106.69h0s-1.7.14-1.63-1.13a6.47,6.47,0,0,1,1.58-2.7l.48-.41.49,1S183.52,106.35,185.39,106.69Z"/><path class="cls-21" d="M232.94,98.82a7,7,0,0,1-2.41,2c-3,1.7-9.15.31-9.15.31l-.7-3.28a16.79,16.79,0,0,0,7.87,1.84,7.66,7.66,0,0,0,2.1-.4c1.35-.51,1.6-1.34,1.23-1.88-.53-.76-3.92-.16-3.92-.16l.08-2.74a15.08,15.08,0,0,1,3,.48A3.42,3.42,0,0,1,232.89,96,2.3,2.3,0,0,1,232.94,98.82Z"/><path class="cls-22" d="M232.94,98.82a3.38,3.38,0,0,1-2.29.44c2.58-.78,1-3.36.35-4.3A3.42,3.42,0,0,1,232.89,96,2.3,2.3,0,0,1,232.94,98.82Z"/><path class="cls-23" d="M188.38,65.85s-4.67,2.09-4.12,12.49,9.14,15.81,9.14,15.81l.15,2.21s-6.62-2.08-10.35-10.52-.82-18.91,5-21Z"/><path class="cls-24" d="M216.61,58.74s6,2.28,8.6,10.48-2.05,13.89-6.7,17.53l1.5,3.53s8.2-5,9-13.73-5.26-16.87-11.34-20.25Z"/><path class="cls-25" d="M221.64,102.5c0,.47-4.16,1.19-5.76,1.48a176.7,176.7,0,0,1-19.8,2.48.55.55,0,0,1-.54-.37A93.26,93.26,0,0,1,192,90c-.2-1.62-.37-3.26-.5-4.91a1.07,1.07,0,0,1,.78-1.12,95,95,0,0,1,26-3.87,1.09,1.09,0,0,1,1.06.85C220.77,87.21,221.87,99,221.64,102.5Z"/><path class="cls-26" d="M221.38,101.1c0,.47-4.16,1.19-5.76,1.48a178.59,178.59,0,0,1-19.79,2.47.52.52,0,0,1-.54-.36,91.82,91.82,0,0,1-3.51-16.13c-.21-1.63-.38-3.26-.51-4.91a1.08,1.08,0,0,1,.79-1.13,95.35,95.35,0,0,1,26-3.86,1.08,1.08,0,0,1,1.06.85C220.52,85.81,221.62,97.6,221.38,101.1Z"/><path class="cls-27" d="M215.62,102.58A176.09,176.09,0,0,1,196.1,105a.87.87,0,0,1-.89-.6,91.54,91.54,0,0,1-3.43-15.87C195.21,94.49,202.76,103.93,215.62,102.58Z"/><path class="cls-28" d="M195,86.93s1.42,9.23,2.88,14.51l1.88-.29s-1.58-9.22-2-14.88Z"/><path class="cls-29" d="M202.6,85.31s1.32,10,2.59,14.84l2.2-.31s-1.59-9.38-2-15Z"/><path class="cls-30" d="M199.26,87.27s.39,3.45.87,5.79l1.87-.28L201.13,87A11.49,11.49,0,0,0,199.26,87.27Z"/><path class="cls-31" d="M215.18,86.58A1.66,1.66,0,1,1,213.41,85,1.67,1.67,0,0,1,215.18,86.58Z"/><path class="cls-32" d="M216.29,93.62a1.66,1.66,0,1,1-1.77-1.54A1.66,1.66,0,0,1,216.29,93.62Z"/><path class="cls-33" d="M219.63,73.16A3.39,3.39,0,1,1,216,70,3.38,3.38,0,0,1,219.63,73.16Z"/><path class="cls-34" d="M190.72,81.58c1.54-.36,5.31-1.12,9.42-2a1,1,0,0,0,.79-1.33l-.78-2.59a.8.8,0,0,0-.91-.63c-1.86.31-6.67.63-9.64,1.62-.37.13-.77.21-.55,1.42a23.28,23.28,0,0,0,.72,3A.82.82,0,0,0,190.72,81.58Z"/><path class="cls-35" d="M188.38,65.85A16.05,16.05,0,0,0,190,69.57s16.15,7.43,28.74-7.34a19.92,19.92,0,0,0-1.92-4.92S209.26,69.77,188.38,65.85Z"/><path class="cls-36" d="M182.24,51s-3.19,1.81-3.65,2.15c-1,.74,2.86,11.51,4.27,11.56a19.37,19.37,0,0,0,3.72-1Z"/><path class="cls-37" d="M181.2,54.2a.64.64,0,0,1-.59.68.63.63,0,0,1-.67-.59.62.62,0,0,1,.58-.67A.64.64,0,0,1,181.2,54.2Z"/><path class="cls-38" d="M214.69,40.63s3.64-.46,4.21-.46c1.24,0,4.6,10.93,3.49,11.82a19.39,19.39,0,0,1-3.58,1.42Z"/><path class="cls-37" d="M217.46,42.59a.63.63,0,1,0,1.06-.68.63.63,0,0,0-1.06.68Z"/><path class="cls-39" d="M190.52,35.92l-.39-1.29a14.69,14.69,0,0,1,9-2.83l.75,1.69Z"/><path class="cls-40" d="M219.21,55.41,211.31,58l-23.8,7.68c-9.22-10-7-26.23,5.14-31.17.57-.23,1.13-.44,1.69-.61h0C207.73,29.64,220.3,40.16,219.21,55.41Z"/><path class="cls-41" d="M211.31,58l-23.8,7.68c-9.22-10-7-26.23,5.14-31.17.57-.23,1.13-.44,1.69-.61-8.15,3.38-8.87,8.84-1.59,6.61s12.5-.83,12.5-.83Z"/><path class="cls-42" d="M219.21,55.41A19.48,19.48,0,0,1,204.9,68.08c-11.51,2.68-17.39-2.45-17.39-2.45Z"/><path class="cls-43" d="M219.21,55.41a24,24,0,0,1-6.87,7c-5.1,3.5-13.2,6.38-24.83,3.23-5.06-9.51-2.13-19.12,5-23.7A17.2,17.2,0,0,1,194.2,41C203,36.68,216.27,40.12,219.21,55.41Z"/><path class="cls-44" d="M212.34,62.4c-5.1,3.5-13.2,6.38-24.83,3.23-5.06-9.51-2.13-19.12,5-23.7-.91,2.25-2.11,6.75-1.12,13.63,1.5,10.33,8.65,13.42,20.93,6.84Z"/><path class="cls-45" d="M199.1,41s9.85-1.68,15.36,7.38A1.6,1.6,0,0,1,214,50.5h0a1.6,1.6,0,0,1-2.32-.51A18.63,18.63,0,0,0,199.1,41Z"/><path class="cls-46" d="M216.09,52.57a1.27,1.27,0,0,1-.47,1.72,1.26,1.26,0,1,1,.47-1.72Z"/><path class="cls-47" d="M236.45,126.23a18.1,18.1,0,0,1-2,2.48h0a60.81,60.81,0,0,0-6.69,10.85,26.75,26.75,0,0,1-2.07-3.22h0a26.09,26.09,0,0,1,3.09-7.24A28.38,28.38,0,0,0,236.45,126.23Z"/><path class="cls-48" d="M249,119.91a23.55,23.55,0,0,0-9.62,4,23.22,23.22,0,0,0-5,4.81,13.51,13.51,0,0,0,1.76-2.15,30,30,0,0,1-7.43,2.54,30.66,30.66,0,0,1,3-4c5.42-6.22,14.63-8,14.63-8A10.22,10.22,0,0,1,249,119.91Z"/><path class="cls-47" d="M194.65,142.08l-.19,0c-.24,1.34-.49,2.55-.75,3.64a22.14,22.14,0,0,0-3.81-4.45c.23-.18.46-.35.68-.5a13.11,13.11,0,0,0,1.78-1.47C193.4,140.49,194.18,141.47,194.65,142.08Z"/><path class="cls-49" d="M192.36,139.35a13.11,13.11,0,0,1-1.78,1.47c-.22.15-.45.32-.68.5a32.77,32.77,0,0,0-6.23-4.46,21.41,21.41,0,0,0-15.41-2.46,12.68,12.68,0,0,1,.84-1.9,13,13,0,0,1,1-1.55h0l0-.05,0,0h0v0l0-.05a.76.76,0,0,1,.08-.11l.08-.1c.09-.13.19-.25.28-.36.55-.08,1.19-.15,1.9-.2a21.14,21.14,0,0,1,10.15,1.7A32.48,32.48,0,0,1,192.36,139.35Z"/><path class="cls-47" d="M241.34,91.35a12.08,12.08,0,0,1-1.3.57,9,9,0,0,1-1,.3,25.85,25.85,0,0,1-2.67-4.47,10.5,10.5,0,0,0,2.47-.52A25.39,25.39,0,0,0,241.34,91.35Z"/><path class="cls-50" d="M238.83,87.23a10.5,10.5,0,0,1-2.47.52,29.33,29.33,0,0,1-2.18-17.25h0A9.56,9.56,0,0,1,236,69.38a31.44,31.44,0,0,0,1.67,15.12C238,85.51,238.43,86.42,238.83,87.23Z"/><path class="cls-47" d="M176.54,98.55a18,18,0,0,1-1.84,5.18,14.21,14.21,0,0,1-3.87.18,16.47,16.47,0,0,0,3-4.74A9.4,9.4,0,0,0,176.54,98.55Z"/><path class="cls-51" d="M176.54,98.55a9.4,9.4,0,0,1-2.73.62c2.31-5.64,1.26-11.61.7-13.93a3.41,3.41,0,0,1,.62.78h0l0,0h0a5.14,5.14,0,0,1,.53-1.94,2,2,0,0,1,.11-.2C177.35,90.34,177.22,95.13,176.54,98.55Z"/><path class="cls-52" d="M190.83,80.94c1.55-.36,5.48-1.26,9.42-2a.79.79,0,0,0,.63-.94l-.62-3a.8.8,0,0,0-.91-.63,77,77,0,0,0-9.66,2.15.8.8,0,0,0-.53.89,20.56,20.56,0,0,0,.73,3A.81.81,0,0,0,190.83,80.94Z"/><path class="cls-53" d="M165.66,97.63a12.5,12.5,0,0,1-4.49.86,12,12,0,0,1-5.33-1.14,1.45,1.45,0,0,1-.61.55h0a6.58,6.58,0,0,1-4.05.39c-4-.52-5.4-2.64-5.35-4.22a1.31,1.31,0,0,1,.68-1h0a8.69,8.69,0,0,1,3.61-.83c1.1-.07,1.39-.41.87-1.16l-.09-.11c-.67-.65-2.87-.68-4.12-1.34a4.52,4.52,0,0,1-2-4.13c0-.86.79-1.35,1.83-1.51a6.66,6.66,0,0,1,3.48.51c2.12,1,2.88.6,3-.52.06-.78-1.57-1.85-3.06-2.88a20,20,0,0,1-1.64-1.22c-1.51-1.32-.6-4.07,2.06-4.57a2,2,0,0,1,.78,0h0c2.07.4,3,4,4.19,3.46,1.39-.57.36-1.77-1.51-3.69-.25-.26-.5-.53-.74-.82-1.64-1.93-3.05-4.56-1.22-5.92a1.86,1.86,0,0,1,1.51-.3c2.32.42,5.63,3.91,7.56,8.21a19.55,19.55,0,0,0,1.67,3.13c.73,1,1.07.9,1.2.74a.44.44,0,0,0,.08-.12c.5-.74.81-5.51,1.07-8.53.05-.49.1-1,.18-1.41.37-2.34,1.15-4.1,2.58-4.47a3.19,3.19,0,0,1,.71-.1c1.25,0,1.91,1,2.2,3.38a9.14,9.14,0,0,1,.06,1.72c-.13,2-.81,3.87-.78,6.24,0,3,1.85,6.19,2.43,10.1S171.05,95.52,165.66,97.63Z"/><path class="cls-54" d="M156.36,72.49c-.2,1.7-2,1.83-3.25,1.73-.18-.21-.36-.43-.53-.66-1.38-1.83-2.32-4-.69-5.26a1.86,1.86,0,0,1,1.51-.3c.5.61,1.52,1.39,2.23,2.32A3,3,0,0,1,156.36,72.49Z"/><path class="cls-55" d="M153.16,78.88A2.79,2.79,0,0,1,150,81.06c-.51-.36-1-.7-1.42-1l-.22-.19c-1.51-1.32-.6-4.07,2.06-4.57a2,2,0,0,1,.78,0h0a12.78,12.78,0,0,1,1.54,2h0A2.25,2.25,0,0,1,153.16,78.88Z"/><path class="cls-56" d="M151.77,91a2.84,2.84,0,0,1-.87-.06l-1.47-.36a12.14,12.14,0,0,1-2.65-1,4.52,4.52,0,0,1-2-4.13c0-.86.79-1.35,1.83-1.51a11.37,11.37,0,0,0,2.94,2c.29.11.6.23.9.37,1.22.55,2.41,1.33,2.59,2.08C153.24,89.3,153.18,90.73,151.77,91Z"/><path class="cls-57" d="M155.23,97.9h0a6.12,6.12,0,0,1-3.49.45l-.56-.06c-4-.52-5.4-2.64-5.35-4.22a1.31,1.31,0,0,1,.68-1h0c.09,0,1.69-.63,5.47.94l.33.15C155.94,95.67,156.82,96.76,155.23,97.9Z"/><path class="cls-58" d="M161.3,90.41c-.1-.19-3.11-6,1.33-11.07.73,1,1.07.9,1.2.74l.1.2S159.75,86.25,161.3,90.41Z"/><path class="cls-59" d="M165.66,97.63a12.5,12.5,0,0,1-4.49.86c9.69-2.21,8.46-11.28,7.31-14.1a17.5,17.5,0,0,1,.09-12.49c1.28-3.46.42-5.57-.12-6.45,1.25,0,1.91,1,2.2,3.38a9.14,9.14,0,0,1,.06,1.72c-.13,2-.81,3.87-.78,6.24,0,3,1.85,6.19,2.43,10.1S171.05,95.52,165.66,97.63Z"/><path class="cls-60" d="M170.71,70.55a5.62,5.62,0,0,1-5.55-.53c.37-2.34,1.15-4.1,2.58-4.47,1.71-.43,2.56.46,2.91,3.28A9.14,9.14,0,0,1,170.71,70.55Z"/><path class="cls-61" d="M156.36,72.49c-.2,1.7-3.38,2.53-3.78,1.07.32-3.13,2.1-3.35,3-3.24A3,3,0,0,1,156.36,72.49Z"/><path class="cls-62" d="M153.16,78.88c-.07,2.52-3.68,2.86-4.61,1.15a2.59,2.59,0,0,1,.4-2.6c1.57-2,3.67-.26,3.76-.19h0A3,3,0,0,1,153.16,78.88Z"/><path class="cls-63" d="M151.77,91a2.84,2.84,0,0,1-.87-.06l-1.47-.36a4.24,4.24,0,0,1,1-4.28c1.22.55,2.41,1.33,2.59,2.08C153.24,89.3,153.18,90.73,151.77,91Z"/><path class="cls-64" d="M155.23,97.9h0a6.12,6.12,0,0,1-3.49.45,3.33,3.33,0,0,1-.42-2.6,2.94,2.94,0,0,1,1-1.64C155.94,95.67,156.82,96.76,155.23,97.9Z"/><path class="cls-65" d="M244.92,86.7a12.58,12.58,0,0,0,4.58,0,12.11,12.11,0,0,0,5-2.12,1.47,1.47,0,0,0,.7.43h0a6.56,6.56,0,0,0,4.06-.36c3.82-1.25,4.81-3.6,4.47-5.14a1.33,1.33,0,0,0-.86-.91h0a8.72,8.72,0,0,0-3.7-.14c-1.1.14-1.45-.14-1.07-1a.37.37,0,0,1,.07-.12c.53-.76,2.69-1.2,3.79-2.09a4.52,4.52,0,0,0,1.22-4.43c-.18-.84-1-1.18-2.08-1.14a6.57,6.57,0,0,0-3.32,1.15c-1.91,1.34-2.73,1.12-3,0-.21-.76,1.2-2.12,2.47-3.41a18.16,18.16,0,0,0,1.39-1.5c1.24-1.58-.18-4.11-2.88-4.1A2.06,2.06,0,0,0,255,62h0c-2,.78-2.16,4.45-3.47,4.18-1.47-.3-.68-1.67.8-3.91.19-.29.39-.61.58-.94,1.24-2.2,2.14-5,.09-6a1.87,1.87,0,0,0-1.54,0c-2.2.85-4.8,4.89-5.9,9.48a20.3,20.3,0,0,1-1.06,3.38c-.52,1.15-.88,1.08-1,1a.58.58,0,0,1-.1-.11c-.63-.64-1.82-5.26-2.64-8.18-.14-.47-.28-.93-.43-1.36-.81-2.23-1.9-3.81-3.38-3.9a2.72,2.72,0,0,0-.71,0c-1.23.21-1.69,1.31-1.54,3.73a9.78,9.78,0,0,0,.27,1.69c.5,2,1.52,3.66,1.92,6,.51,3-.66,6.43-.5,10.38S239.23,85.63,244.92,86.7Z"/><path class="cls-66" d="M249.39,60.28c.51,1.63,2.35,1.41,3.52,1.09.13-.24.27-.49.39-.75,1-2,1.53-4.41-.3-5.3a1.87,1.87,0,0,0-1.54,0c-.38.7-1.24,1.65-1.75,2.69A3,3,0,0,0,249.39,60.28Z"/><path class="cls-67" d="M253.72,66a2.79,2.79,0,0,0,3.54,1.54c.44-.44.86-.87,1.2-1.27l.19-.23c1.24-1.58-.18-4.11-2.88-4.1A2.06,2.06,0,0,0,255,62h0a13,13,0,0,0-1.14,2.23h0A2.29,2.29,0,0,0,253.72,66Z"/><path class="cls-68" d="M257.33,77.59a2.9,2.9,0,0,0,.86-.21l1.37-.63A11.29,11.29,0,0,0,262,75.29a4.52,4.52,0,0,0,1.22-4.43c-.18-.84-1-1.18-2.08-1.14a11.26,11.26,0,0,1-2.53,2.48c-.26.16-.54.34-.8.53-1.1.77-2.13,1.76-2.17,2.53C255.58,76.22,255.9,77.61,257.33,77.59Z"/><path class="cls-69" d="M255.22,85h0a6,6,0,0,0,3.52-.2l.54-.16c3.82-1.25,4.81-3.6,4.47-5.14a1.33,1.33,0,0,0-.86-.91h0c-.1,0-1.78-.31-5.2,1.95l-.3.2C254.11,83,253.45,84.2,255.22,85Z"/><path class="cls-70" d="M247.87,78.8c.06-.21,1.94-6.49-3.37-10.63-.52,1.15-.88,1.08-1,1l-.06.2S248.61,74.42,247.87,78.8Z"/><path class="cls-71" d="M244.92,86.7a12.58,12.58,0,0,0,4.58,0c-9.93-.37-10.42-9.51-9.8-12.5A17.52,17.52,0,0,0,237.28,62c-1.89-3.15-1.45-5.39-1.08-6.35-1.23.21-1.69,1.31-1.54,3.73a9.78,9.78,0,0,0,.27,1.69c.5,2,1.52,3.66,1.92,6,.51,3-.66,6.43-.5,10.38S239.23,85.63,244.92,86.7Z"/><path class="cls-72" d="M234.93,61a5.59,5.59,0,0,0,5.36-1.55c-.81-2.23-1.9-3.81-3.38-3.9-1.76-.11-2.43.92-2.25,3.76A9.78,9.78,0,0,0,234.93,61Z"/><path class="cls-73" d="M249.39,60.28c.51,1.63,3.79,1.85,3.91.34-.9-3-2.68-2.9-3.59-2.62A3,3,0,0,0,249.39,60.28Z"/><path class="cls-74" d="M253.72,66c.54,2.46,4.14,2.12,4.74.27a2.58,2.58,0,0,0-.88-2.48c-1.9-1.64-3.65.43-3.72.52h0A3,3,0,0,0,253.72,66Z"/><path class="cls-75" d="M257.33,77.59a2.9,2.9,0,0,0,.86-.21l1.37-.63a4.25,4.25,0,0,0-1.77-4c-1.1.77-2.13,1.76-2.17,2.53C255.58,76.22,255.9,77.61,257.33,77.59Z"/><path class="cls-76" d="M255.22,85h0a6,6,0,0,0,3.52-.2,3.35,3.35,0,0,0-.07-2.63,3,3,0,0,0-1.29-1.43C254.11,83,253.45,84.2,255.22,85Z"/><path class="cls-19" d="M236.67,174.17s-1.37-4.55-1.06-6.95,14-35.72,31.87-35.68Z"/><path class="cls-77" d="M240.9,185.68s-4-3.19-4.36-13.69,21-47,34-39.39Z"/><path class="cls-78" d="M273.91,145.68c0,.43,0,.86,0,1.31a69.88,69.88,0,0,1-.66,7c-.06.42-.13.84-.2,1.27-.35,2.18-.83,4.46-1.43,6.81l-.32,1.22a83.87,83.87,0,0,1-2.67,8.09l-.46,1.18c-.95,2.34-2,4.71-3.24,7.09-.19.38-.39.76-.59,1.14-1.09,2-2.28,4.1-3.59,6.15l-.33.51h0l-.81.46c-9.47,5-20.88-1.49-20.92-6.25v-.16a9.35,9.35,0,0,1,.17-1.27c.27-1.51.85-3.89,1.66-6.74.11-.4.23-.8.35-1.22.67-2.26,1.46-4.77,2.35-7.36.14-.39.27-.79.41-1.19.94-2.66,2-5.38,3.05-8,.16-.39.33-.78.49-1.16,1-2.27,2-4.42,3-6.34.21-.38.42-.76.63-1.12s.5-.87.76-1.27a52.51,52.51,0,0,1,3.29-4.75c.28-.36.57-.72.85-1.06A31.66,31.66,0,0,1,262.2,134c.49-.32,1-.61,1.45-.87,2.6-1.41,5-1.78,6.87-1,.93.38,1.76,1.72,2.37,3.85.12.44.24.92.35,1.42A39.28,39.28,0,0,1,273.91,145.68Z"/><path class="cls-79" d="M273.24,137.39l-11-3.38c.49-.32,1-.61,1.45-.87l9.24,2.83C273,136.41,273.13,136.89,273.24,137.39Z"/><path class="cls-79" d="M273.91,145.68c0,.43,0,.86,0,1.31l-19-5.83c.28-.36.57-.72.85-1.06Z"/><path class="cls-79" d="M273.22,154c-.06.42-.13.84-.2,1.27l-22.86-7c.21-.38.42-.76.63-1.12Z"/><path class="cls-79" d="M271.59,162.12l-.32,1.22-24.62-7.54c.16-.39.33-.78.49-1.16Z"/><path class="cls-79" d="M268.6,171.43l-.46,1.18L243.19,165c.14-.39.27-.79.41-1.19Z"/><path class="cls-79" d="M264.9,179.7c-.19.38-.39.76-.59,1.14l-23.82-7.29c.11-.4.23-.8.35-1.22Z"/><path class="cls-79" d="M260.72,187l-.33.51h0l-.81.46-20.92-6.41a9.35,9.35,0,0,1,.17-1.27Z"/><path class="cls-19" d="M193.31,183s-1.79-4.4-3.53-6.07-33.34-19-47.21-7.74Z"/><path class="cls-80" d="M197.26,194.58s1.1-5-5.21-13.39-45.89-23.4-51.21-9.28Z"/><path class="cls-81" d="M146.45,184.19c.27.34.55.67.85,1a64.46,64.46,0,0,0,4.94,5.08l.94.86c1.65,1.47,3.45,3,5.4,4.4l1,.75a82.61,82.61,0,0,0,7.16,4.62l1.1.62c2.2,1.23,4.52,2.4,7,3.49l1.18.51c2.13.91,4.35,1.76,6.66,2.53l.57.19h0l.92-.16c10.51-2.06,15.31-14.27,12.36-18l-.11-.12a10.35,10.35,0,0,0-.92-.88c-1.16-1-3.11-2.49-5.54-4.21l-1-.72c-1.94-1.34-4.14-2.8-6.45-4.25l-1.07-.67c-2.4-1.48-4.91-3-7.38-4.29-.37-.21-.75-.4-1.12-.6-2.18-1.15-4.32-2.19-6.33-3l-1.19-.48c-.48-.19-.94-.36-1.39-.52a53.68,53.68,0,0,0-5.55-1.62l-1.32-.29a31.58,31.58,0,0,0-8.89-.64c-.59,0-1.15.13-1.68.22-2.9.54-5,1.75-6,3.53-.49.87-.29,2.44.57,4.47.18.43.39.87.63,1.34A38.32,38.32,0,0,0,146.45,184.19Z"/><path class="cls-79" d="M141.77,177.33l6.46-9.56c-.59,0-1.15.13-1.68.22l-5.41,8C141.32,176.42,141.53,176.86,141.77,177.33Z"/><path class="cls-79" d="M146.45,184.19c.27.34.55.67.85,1l11.14-16.49-1.32-.29Z"/><path class="cls-79" d="M152.24,190.27l.94.86,13.39-19.81-1.19-.48Z"/><path class="cls-79" d="M158.58,195.53l1,.75L174,175c-.37-.21-.75-.4-1.12-.6Z"/><path class="cls-79" d="M166.76,200.9l1.1.62,14.61-21.61-1.07-.67Z"/><path class="cls-79" d="M174.83,205l1.18.51L190,184.88l-1-.72Z"/><path class="cls-79" d="M182.67,208.05l.57.19h0l.92-.16L196.41,190a10.35,10.35,0,0,0-.92-.88Z"/><path class="cls-82" d="M273.24,137.39c-.11-.5-.23-1-.35-1.42-.61-2.13-1.44-3.47-2.37-3.85a5.65,5.65,0,0,0-2.11-.38,8,8,0,0,0-1-.15l0-.05-.64,0a9,9,0,0,0-2.53.32c-4,.85-7.69,3.26-11.06,6.44-.24-2-.71-6.1-1.09-10.08a17.74,17.74,0,0,0-3.16-8.33,10.22,10.22,0,0,0-2.66-2.81s-2.55-9.63-8.56-11.91l-.34-.12-.18-.07h0a13.63,13.63,0,0,0-5.63-.82h0a4.35,4.35,0,0,0-1.07.15h0l-.26.06a6.78,6.78,0,0,0-1.28.44h0l-.32.14,0,0,0,0v0l0-.05h0l0-.06v0l0-.07v0l0-.09h0A3,3,0,0,0,229,104v0s0-.09,0-.13v-.05s0-.1,0-.14v-.07s0-.1,0-.15v-.07a.81.81,0,0,0,0-.16v-.07a1.15,1.15,0,0,0,0-.19v0c0-.17,0-.34,0-.53s0-.23,0-.35-.05-.45-.09-.7a5.78,5.78,0,0,0,1.56-.57,7,7,0,0,0,2.41-2,2.3,2.3,0,0,0-.05-2.78A3.42,3.42,0,0,0,231,95a14.88,14.88,0,0,0-2.93-.48,19.83,19.83,0,0,0-.25-3c0-.13,0-.26-.07-.39h0a12.77,12.77,0,0,0-.54-2,16.91,16.91,0,0,0,1.57.93l.15.09,0,0,.09,0h0c2.29,1.19,6.3,2.82,10,2a9,9,0,0,0,1-.3,12.08,12.08,0,0,0,1.3-.57,10.41,10.41,0,0,0,4.57-4.51,12.39,12.39,0,0,0,3.59-.12,12.11,12.11,0,0,0,5-2.12,1.47,1.47,0,0,0,.7.43h0l.13,0h0l.1,0h.06l.1,0h.06l.11,0h.9l.2,0H257l.56-.07h0l.3-.06h.07l.24-.05.1,0,.24-.06.11,0,.15,0,.12,0,.05,0,.37-.11c3.82-1.25,4.81-3.6,4.47-5.14a1.33,1.33,0,0,0-.86-.91h0a8.72,8.72,0,0,0-3.7-.14c-1.1.14-1.45-.14-1.07-1a.37.37,0,0,1,.07-.12l1.37-.63A11.29,11.29,0,0,0,262,75.29a4.52,4.52,0,0,0,1.22-4.43c-.18-.84-1-1.18-2.08-1.14a6.57,6.57,0,0,0-3.32,1.15c-1.91,1.34-2.73,1.12-3,0-.21-.76,1.2-2.12,2.47-3.41l.09-.08a2.06,2.06,0,0,0,1.11-1.19l0,0,.17-.21c1.24-1.58-.18-4.11-2.88-4.1A2.06,2.06,0,0,0,255,62h0c-2,.78-2.16,4.45-3.47,4.18-1.47-.3-.68-1.67.8-3.91.19-.29.39-.61.58-.94a.93.93,0,0,1,.05-.1.91.91,0,0,0,.34-.65h0c0-.06.05-.11.07-.16l0-.05a1,1,0,0,1,.07-.15l0,0,.07-.16v0c.07-.16.14-.32.2-.48l0-.08a.56.56,0,0,1,0-.12l0-.09a.36.36,0,0,1,0-.11l0-.1,0-.11,0-.1,0-.11s0-.07,0-.1l0-.1a.43.43,0,0,1,0-.11s0-.06,0-.1,0-.07,0-.11,0-.06,0-.09l0-.18a.38.38,0,0,1,0-.1.45.45,0,0,1,0-.11v-.09s0-.06,0-.1v-.19a.28.28,0,0,1,0-.09v-.09a.28.28,0,0,1,0-.09s0-.06,0-.09a.28.28,0,0,0,0-.09.19.19,0,0,0,0-.08,296002469434.79,296002469434.79,0,0,1,0-.18s0,0,0-.08a.42.42,0,0,1,0-.1,1.17,1.17,0,0,0-.05-.11l0-.09a.43.43,0,0,0,0-.07l0-.08a.43.43,0,0,1,0-.07l-.05-.07-.05-.06-.06-.07-.06-.06-.07-.07-.06,0-.08-.07-.06,0-.1-.07-.06,0-.18-.09a1.87,1.87,0,0,0-1.54,0c-2.2.85-4.8,4.89-5.9,9.48a20.3,20.3,0,0,1-1.06,3.38c-.52,1.15-.88,1.08-1,1a.58.58,0,0,1-.1-.11c-.63-.64-1.82-5.26-2.64-8.18-.14-.47-.28-.93-.43-1.36-.81-2.23-1.9-3.81-3.38-3.9h-.73l-.18,0H236l-.16.06,0,0-.14.07,0,0-.14.09,0,0-.12.12,0,0a.64.64,0,0,0-.1.13l0,0-.1.15s0,0,0,.05l-.09.17,0,.06c0,.06-.05.13-.07.2v0a1.17,1.17,0,0,0,0,.2s0,0,0,.05,0,.16,0,.24v.07l0,.27v.06a2.45,2.45,0,0,1,0,.27V59c0,.12,0,.25,0,.39a9.78,9.78,0,0,0,.27,1.69c.5,2,1.52,3.66,1.92,6A10.15,10.15,0,0,1,237,69c-.32.12-.66.26-1,.43a9.56,9.56,0,0,0-1.79,1.12h0l-.19.15h0l0,0h0l-.28.25-.1.09c-.06.06-.12.11-.17.17l-.14.15-.12.13-.17.2-.05.07-.1.11a11.6,11.6,0,0,0-1.18-1.48,10.47,10.47,0,0,0-4.08-2.84c-.16-.39-.34-.78-.53-1.16-.49-3.39-1.4-7.84-2.19-8.43s-1.33-1.28-5.8-.83c-.13-.08-.26-.16-.38-.25a13.25,13.25,0,0,0,.55-1.46c.06-.73.08-1.45.07-2.15A14.66,14.66,0,0,0,222.39,52c1.11-.89-2.25-11.82-3.49-11.82-.44,0-2.69.27-3.71.39a18.37,18.37,0,0,0-15.58-7.63l-.5-1.13a14.69,14.69,0,0,0-9,2.83l.28.93a17.8,17.8,0,0,0-8.58,15.64c-.88.5-2.88,1.65-3.24,1.92-1,.74,2.86,11.51,4.27,11.56a14.5,14.5,0,0,0,3.18-.82c.33.45.68.88,1.05,1.31-4.08,1.58-6.66,2.9-7.05,3.42-.53.72.28,4.09,1,6.57-1.43.94-3.09,2.9-3.65,7,0,.2-.05.41-.07.62a2,2,0,0,0-.83.4,3.05,3.05,0,0,0-.68.76,2,2,0,0,0-.11.2l-.12.24,0,.07a1.43,1.43,0,0,0-.08.22l0,0-.09.29,0,.06-.06.3v.05c0,.08,0,.16,0,.25s0,0,0,.07,0,.22,0,.34h0l0,0h0l0,0,0,0,0,0,0,0-.05-.06,0,0-.06-.08,0,0-.11-.12,0,0-.1-.1a.38.38,0,0,0-.09-.09l0,0,0,0-.08-.07-.16-.14h0a6.76,6.76,0,0,0-.6-.43h0a7.58,7.58,0,0,0-2-.83c-.74-2.55-1.67-4.81-1.71-7,0-2.37.65-4.19.78-6.24a9.14,9.14,0,0,0-.06-1.72c0-.13,0-.26-.05-.39v-.07l-.06-.34V68c0-.11-.05-.22-.07-.32v0c0-.09-.05-.18-.07-.26l0-.06a1.83,1.83,0,0,0-.08-.25l0-.07-.09-.23,0,0-.09-.19,0,0a1.74,1.74,0,0,0-.11-.18l0-.05-.11-.15,0,0-.12-.13,0,0-.12-.1,0,0-.14-.09,0,0-.16-.07h0l-.15,0h0l-.18,0h-.54l-.08,0H168l-.08,0-.17,0c-1.43.37-2.21,2.13-2.58,4.47-.08.45-.13.92-.18,1.41-.26,3-.57,7.79-1.07,8.53a.44.44,0,0,1-.08.12c-.13.16-.47.29-1.2-.74A19.55,19.55,0,0,1,161,76.21c-1.93-4.3-5.24-7.79-7.56-8.21a1.86,1.86,0,0,0-1.51.3l-.16.12,0,0a.3.3,0,0,0-.08.08l-.06.06-.06.08,0,.06-.06.08a.43.43,0,0,0,0,.07.56.56,0,0,0-.05.08.43.43,0,0,0,0,.07l0,.08,0,.07,0,.09a.19.19,0,0,0,0,.07l0,.1a.5.5,0,0,0,0,.12.43.43,0,0,0,0,.11.22.22,0,0,0,0,.08s0,.06,0,.09v.27a.28.28,0,0,0,0,.09v.09s0,.06,0,.09a.28.28,0,0,0,0,.09.29.29,0,0,0,0,.09s0,.06,0,.09l0,.1a.29.29,0,0,0,0,.09l0,.11,0,.09a.84.84,0,0,0,0,.17l0,.09a.69.69,0,0,1,0,.1l0,.1a.3.3,0,0,1,0,.1l.05.09a1,1,0,0,0,0,.1s0,.07.05.1l0,.09.06.1a.41.41,0,0,0,0,.09.54.54,0,0,0,.05.11l.05.08.06.11,0,.07c.09.15.18.3.28.45l0,0,.1.14,0,0a.71.71,0,0,0,.1.14l0,0,.1.15h0a.91.91,0,0,0,.46.57l.07.09c.24.29.49.56.74.82,1.87,1.92,2.9,3.12,1.51,3.69-1.23.51-2.12-3.06-4.19-3.46h0a2,2,0,0,0-.78,0c-2.66.5-3.57,3.25-2.06,4.57l.2.17,0,0a2.08,2.08,0,0,0,1.32,1l.1.07c1.49,1,3.12,2.1,3.06,2.88-.08,1.12-.84,1.49-3,.52a6.66,6.66,0,0,0-3.48-.51c-1,.16-1.81.65-1.83,1.51a4.52,4.52,0,0,0,2,4.13,12.14,12.14,0,0,0,2.65,1l1.47.36L151,91c.52.75.23,1.09-.87,1.16a8.69,8.69,0,0,0-3.61.83h0a1.31,1.31,0,0,0-.68,1c0,1.58,1.36,3.7,5.35,4.22l.38,0H152l.24,0H153l.56,0h.06l.19,0h.07l.16,0,.07,0,.14,0,.07,0,.13,0,.07,0,.11,0,.06,0,.11,0,0,0,.1,0,.05,0,.09,0,0,0,.12-.06h0a1.45,1.45,0,0,0,.61-.55,11.88,11.88,0,0,0,4.33,1.11l-.13.18a18.75,18.75,0,0,0,10.79,5.27,14.21,14.21,0,0,0,3.87-.18,15.6,15.6,0,0,0,3-.92s2.71.74,6.53-1.42h0c.35-.2.71-.42,1.08-.67,0,0,.13.61.34,1.28.05.16.1.31.16.47h0l-.07.06-.13.11-.28.24c-.92.82-2.81,2.65-2.62,3.72s1.18,1.59,2.77,1.56L184,109h0c-1.07.66-2.45,1.53-3.21,2.11l-.06.05h0c-1.3,1-1.85,2.47-4.07,4.18s-2.16,3-3,6.53c-.38,1.54-.78,3.08-1.12,4.34-.44,1.61-.77,2.74-.77,2.74a14,14,0,0,0-1.51,1.74l0,.06,0,0-.06.09,0,.05h0a13,13,0,0,0-1,1.55,12.68,12.68,0,0,0-.84,1.9,11,11,0,0,0-.33,1.16,33.76,33.76,0,0,0-.62,4.55c0,.61-.07,1.17-.08,1.65,0,1.07,0,1.76,0,1.76a12.33,12.33,0,0,0-1,1.39h0a15.55,15.55,0,0,0-1.39,2.83,12.16,12.16,0,0,0-.73,3.26c-.3,3.76,3.87,14.16,4.9,16.65-8.23-2.4-17.24-3.5-23.75-.22a9.31,9.31,0,0,0-2.17,1.34,6.12,6.12,0,0,0-.5.39h.05a8.8,8.8,0,0,0-.65.72,5.66,5.66,0,0,0-1.4,1.63c-.49.87-.29,2.44.57,4.47.18.43.39.87.63,1.34a38.32,38.32,0,0,0,4.68,6.86c.27.34.55.67.85,1a64.46,64.46,0,0,0,4.94,5.08l.94.86c1.65,1.47,3.45,3,5.4,4.4l1,.75a82.61,82.61,0,0,0,7.16,4.62l1.1.62c2.2,1.23,4.52,2.4,7,3.49l1.18.51c2.13.91,4.35,1.76,6.66,2.53l.57.19h0l.92-.16c7.68-1.5,12.31-8.43,13.1-13.51,0,0,0-.11,0-.32a6.71,6.71,0,0,0-.31-3.34,24.25,24.25,0,0,0-3.68-7.95,32.38,32.38,0,0,0-2.16-4.29,87.29,87.29,0,0,0-.13-10.55c-.52-5.34-2.23-9.49-2-12.35,0,0,2.55-1.18,4.64-10,.26-1.09.51-2.3.75-3.64l.19,0c1.1-.36,6.73-2.38,8.95-7.37,2.47-5.54,4.94-6.34,6.26-5.48s6.91,6.17,15.1,5.76c0,0,.23.54.68,1.35h0a26.75,26.75,0,0,0,2.07,3.22,14.94,14.94,0,0,0,5.14,4.54,54.6,54.6,0,0,1,.77,11.33c-.12,5.12.46,11.44,2.24,15.3.33,1.82.81,3.44.81,3.44a24.52,24.52,0,0,0,2.13,8.49,6.79,6.79,0,0,0,1.86,2.79,2.38,2.38,0,0,0,.24.23c3.8,3.46,11.76,5.94,18.68,2.29l.81-.46h0l.33-.51c1.31-2.05,2.5-4.1,3.59-6.15.2-.38.4-.76.59-1.14,1.22-2.38,2.29-4.75,3.24-7.09l.46-1.18a83.87,83.87,0,0,0,2.67-8.09l.32-1.22c.6-2.35,1.08-4.63,1.43-6.81.07-.43.14-.85.2-1.27a69.88,69.88,0,0,0,.66-7c0-.45,0-.88,0-1.31A39.28,39.28,0,0,0,273.24,137.39Zm-103.08-6.56h0Zm15.42-24.11-.19,0a1,1,0,0,1-.41-.16.61.61,0,0,1-.16-.16l0-.1a.57.57,0,0,1,0-.22,1.91,1.91,0,0,1,.24-.8l.16-.29c.12-.19.25-.37.38-.55l.09-.13.19-.23c.28-.33.5-.56.5-.56A13.76,13.76,0,0,0,185.58,106.72ZM228,97.21h0s3.39-.6,3.92.16c.37.54.12,1.37-1.23,1.88a7.37,7.37,0,0,1-2,.39c-.17-.64-.39-1.36-.68-2.16Z"/><path class="cls-83" d="M273.24,137.39c-.11-.5-.23-1-.35-1.42-.61-2.13-1.44-3.47-2.37-3.85a5.65,5.65,0,0,0-2.11-.38,8,8,0,0,0-1-.15l0-.05-.64,0a9,9,0,0,0-2.53.32c-4,.85-7.69,3.26-11.06,6.44-.24-2-.71-6.1-1.09-10.08a17.74,17.74,0,0,0-3.16-8.33,10.22,10.22,0,0,0-2.66-2.81s-2.55-9.63-8.56-11.91l-.34-.12-.18-.07h0a13.63,13.63,0,0,0-5.63-.82h0a4.35,4.35,0,0,0-1.07.15h0l-.26.06a6.78,6.78,0,0,0-1.28.44h0l-.32.14,0,0,0,0v0l0-.05h0l0-.06v0l0-.07v0l0-.09h0A3,3,0,0,0,229,104v0s0-.09,0-.13v-.05s0-.1,0-.14v-.07s0-.1,0-.15v-.07a.81.81,0,0,0,0-.16v-.07a1.15,1.15,0,0,0,0-.19v0c0-.17,0-.34,0-.53s0-.23,0-.35-.05-.45-.09-.7a5.78,5.78,0,0,0,1.56-.57,7,7,0,0,0,2.41-2,2.3,2.3,0,0,0-.05-2.78A3.42,3.42,0,0,0,231,95a14.88,14.88,0,0,0-2.93-.48,19.83,19.83,0,0,0-.25-3c0-.13,0-.26-.07-.39h0a12.77,12.77,0,0,0-.54-2,16.91,16.91,0,0,0,1.57.93l.15.09,0,0,.09,0h0c2.29,1.19,6.3,2.82,10,2a9,9,0,0,0,1-.3,12.08,12.08,0,0,0,1.3-.57,10.41,10.41,0,0,0,4.57-4.51,12.39,12.39,0,0,0,3.59-.12,12.11,12.11,0,0,0,5-2.12,1.47,1.47,0,0,0,.7.43h0l.13,0h0l.1,0h.06l.1,0h.06l.11,0h.9l.2,0H257l.56-.07h0l.3-.06h.07l.24-.05.1,0,.24-.06.11,0,.15,0,.12,0,.05,0,.37-.11c3.82-1.25,4.81-3.6,4.47-5.14a1.33,1.33,0,0,0-.86-.91h0a8.72,8.72,0,0,0-3.7-.14c-1.1.14-1.45-.14-1.07-1a.37.37,0,0,1,.07-.12l1.37-.63A11.29,11.29,0,0,0,262,75.29a4.52,4.52,0,0,0,1.22-4.43c-.18-.84-1-1.18-2.08-1.14a6.57,6.57,0,0,0-3.32,1.15c-1.91,1.34-2.73,1.12-3,0-.21-.76,1.2-2.12,2.47-3.41l.09-.08a2.06,2.06,0,0,0,1.11-1.19l0,0,.17-.21c1.24-1.58-.18-4.11-2.88-4.1A2.06,2.06,0,0,0,255,62h0c-2,.78-2.16,4.45-3.47,4.18-1.47-.3-.68-1.67.8-3.91.19-.29.39-.61.58-.94a.93.93,0,0,1,.05-.1.91.91,0,0,0,.34-.65h0c0-.06.05-.11.07-.16l0-.05a1,1,0,0,1,.07-.15l0,0,.07-.16v0c.07-.16.14-.32.2-.48l0-.08a.56.56,0,0,1,0-.12l0-.09a.36.36,0,0,1,0-.11l0-.1,0-.11,0-.1,0-.11s0-.07,0-.1l0-.1a.43.43,0,0,1,0-.11s0-.06,0-.1,0-.07,0-.11,0-.06,0-.09l0-.18a.38.38,0,0,1,0-.1.45.45,0,0,1,0-.11v-.09s0-.06,0-.1v-.19a.28.28,0,0,1,0-.09v-.09a.28.28,0,0,1,0-.09s0-.06,0-.09a.28.28,0,0,0,0-.09.19.19,0,0,0,0-.08,296002469434.79,296002469434.79,0,0,1,0-.18s0,0,0-.08a.42.42,0,0,1,0-.1,1.17,1.17,0,0,0-.05-.11l0-.09a.43.43,0,0,0,0-.07l0-.08a.43.43,0,0,1,0-.07l-.05-.07-.05-.06-.06-.07-.06-.06-.07-.07-.06,0-.08-.07-.06,0-.1-.07-.06,0-.18-.09a1.87,1.87,0,0,0-1.54,0c-2.2.85-4.8,4.89-5.9,9.48a20.3,20.3,0,0,1-1.06,3.38c-.52,1.15-.88,1.08-1,1a.58.58,0,0,1-.1-.11c-.63-.64-1.82-5.26-2.64-8.18-.14-.47-.28-.93-.43-1.36-.81-2.23-1.9-3.81-3.38-3.9h-.73l-.18,0H236l-.16.06,0,0-.14.07,0,0-.14.09,0,0-.12.12,0,0a.64.64,0,0,0-.1.13l0,0-.1.15s0,0,0,.05l-.09.17,0,.06c0,.06-.05.13-.07.2v0a1.17,1.17,0,0,0,0,.2s0,0,0,.05,0,.16,0,.24v.07l0,.27v.06a2.45,2.45,0,0,1,0,.27V59c0,.12,0,.25,0,.39a9.78,9.78,0,0,0,.27,1.69c.5,2,1.52,3.66,1.92,6A10.15,10.15,0,0,1,237,69c-.32.12-.66.26-1,.43a9.56,9.56,0,0,0-1.79,1.12h0l-.19.15h0l0,0h0l-.28.25-.1.09c-.06.06-.12.11-.17.17l-.14.15-.12.13-.17.2-.05.07-.1.11a11.6,11.6,0,0,0-1.18-1.48,10.47,10.47,0,0,0-4.08-2.84c-.16-.39-.34-.78-.53-1.16-.49-3.39-1.4-7.84-2.19-8.43s-1.33-1.28-5.8-.83c-.13-.08-.26-.16-.38-.25a13.25,13.25,0,0,0,.55-1.46c.06-.73.08-1.45.07-2.15A14.66,14.66,0,0,0,222.39,52c1.11-.89-2.25-11.82-3.49-11.82-.44,0-2.69.27-3.71.39a18.37,18.37,0,0,0-15.58-7.63l-.5-1.13a14.69,14.69,0,0,0-9,2.83l.28.93a17.8,17.8,0,0,0-8.58,15.64c-.88.5-2.88,1.65-3.24,1.92-1,.74,2.86,11.51,4.27,11.56a14.5,14.5,0,0,0,3.18-.82c.33.45.68.88,1.05,1.31-4.08,1.58-6.66,2.9-7.05,3.42-.53.72.28,4.09,1,6.57-1.43.94-3.09,2.9-3.65,7,0,.2-.05.41-.07.62a2,2,0,0,0-.83.4,3.05,3.05,0,0,0-.68.76,2,2,0,0,0-.11.2l-.12.24,0,.07a1.43,1.43,0,0,0-.08.22l0,0-.09.29,0,.06-.06.3v.05c0,.08,0,.16,0,.25s0,0,0,.07,0,.22,0,.34h0l0,0h0l0,0,0,0,0,0,0,0-.05-.06,0,0-.06-.08,0,0-.11-.12,0,0-.1-.1a.38.38,0,0,0-.09-.09l0,0,0,0-.08-.07-.16-.14h0a6.76,6.76,0,0,0-.6-.43h0a7.58,7.58,0,0,0-2-.83c-.74-2.55-1.67-4.81-1.71-7,0-2.37.65-4.19.78-6.24a9.14,9.14,0,0,0-.06-1.72c0-.13,0-.26-.05-.39v-.07l-.06-.34V68c0-.11-.05-.22-.07-.32v0c0-.09-.05-.18-.07-.26l0-.06a1.83,1.83,0,0,0-.08-.25l0-.07-.09-.23,0,0-.09-.19,0,0a1.74,1.74,0,0,0-.11-.18l0-.05-.11-.15,0,0-.12-.13,0,0-.12-.1,0,0-.14-.09,0,0-.16-.07h0l-.15,0h0l-.18,0h-.54l-.08,0H168l-.08,0-.17,0c-1.43.37-2.21,2.13-2.58,4.47-.08.45-.13.92-.18,1.41-.26,3-.57,7.79-1.07,8.53a.44.44,0,0,1-.08.12c-.13.16-.47.29-1.2-.74A19.55,19.55,0,0,1,161,76.21c-1.93-4.3-5.24-7.79-7.56-8.21a1.86,1.86,0,0,0-1.51.3l-.16.12,0,0a.3.3,0,0,0-.08.08l-.06.06-.06.08,0,.06-.06.08a.43.43,0,0,0,0,.07.56.56,0,0,0-.05.08.43.43,0,0,0,0,.07l0,.08,0,.07,0,.09a.19.19,0,0,0,0,.07l0,.1a.5.5,0,0,0,0,.12.43.43,0,0,0,0,.11.22.22,0,0,0,0,.08s0,.06,0,.09v.27a.28.28,0,0,0,0,.09v.09s0,.06,0,.09a.28.28,0,0,0,0,.09.29.29,0,0,0,0,.09s0,.06,0,.09l0,.1a.29.29,0,0,0,0,.09l0,.11,0,.09a.84.84,0,0,0,0,.17l0,.09a.69.69,0,0,1,0,.1l0,.1a.3.3,0,0,1,0,.1l.05.09a1,1,0,0,0,0,.1s0,.07.05.1l0,.09.06.1a.41.41,0,0,0,0,.09.54.54,0,0,0,.05.11l.05.08.06.11,0,.07c.09.15.18.3.28.45l0,0,.1.14,0,0a.71.71,0,0,0,.1.14l0,0,.1.15h0a.91.91,0,0,0,.46.57l.07.09c.24.29.49.56.74.82,1.87,1.92,2.9,3.12,1.51,3.69-1.23.51-2.12-3.06-4.19-3.46h0a2,2,0,0,0-.78,0c-2.66.5-3.57,3.25-2.06,4.57l.2.17,0,0a2.08,2.08,0,0,0,1.32,1l.1.07c1.49,1,3.12,2.1,3.06,2.88-.08,1.12-.84,1.49-3,.52a6.66,6.66,0,0,0-3.48-.51c-1,.16-1.81.65-1.83,1.51a4.52,4.52,0,0,0,2,4.13,12.14,12.14,0,0,0,2.65,1l1.47.36L151,91c.52.75.23,1.09-.87,1.16a8.69,8.69,0,0,0-3.61.83h0a1.31,1.31,0,0,0-.68,1c0,1.58,1.36,3.7,5.35,4.22l.38,0H152l.24,0H153l.56,0h.06l.19,0h.07l.16,0,.07,0,.14,0,.07,0,.13,0,.07,0,.11,0,.06,0,.11,0,0,0,.1,0,.05,0,.09,0,0,0,.12-.06h0a1.45,1.45,0,0,0,.61-.55,11.88,11.88,0,0,0,4.33,1.11l-.13.18a18.75,18.75,0,0,0,10.79,5.27,14.21,14.21,0,0,0,3.87-.18,15.6,15.6,0,0,0,3-.92s2.71.74,6.53-1.42h0c.35-.2.71-.42,1.08-.67,0,0,.13.61.34,1.28.05.16.1.31.16.47h0l-.07.06-.13.11-.28.24c-.92.82-2.81,2.65-2.62,3.72s1.18,1.59,2.77,1.56L184,109h0c-1.07.66-2.45,1.53-3.21,2.11l-.06.05h0c-1.3,1-1.85,2.47-4.07,4.18s-2.16,3-3,6.53c-.38,1.54-.78,3.08-1.12,4.34-.44,1.61-.77,2.74-.77,2.74a14,14,0,0,0-1.51,1.74l0,.06,0,0-.06.09,0,.05h0a13,13,0,0,0-1,1.55,12.68,12.68,0,0,0-.84,1.9,11,11,0,0,0-.33,1.16,33.76,33.76,0,0,0-.62,4.55c0,.61-.07,1.17-.08,1.65,0,1.07,0,1.76,0,1.76a12.33,12.33,0,0,0-1,1.39h0a15.55,15.55,0,0,0-1.39,2.83,12.16,12.16,0,0,0-.73,3.26c-.3,3.76,3.87,14.16,4.9,16.65-8.23-2.4-17.24-3.5-23.75-.22a9.31,9.31,0,0,0-2.17,1.34,6.12,6.12,0,0,0-.5.39h.05a8.8,8.8,0,0,0-.65.72,5.66,5.66,0,0,0-1.4,1.63c-.49.87-.29,2.44.57,4.47.18.43.39.87.63,1.34a38.32,38.32,0,0,0,4.68,6.86c.27.34.55.67.85,1a64.46,64.46,0,0,0,4.94,5.08l.94.86c1.65,1.47,3.45,3,5.4,4.4l1,.75a82.61,82.61,0,0,0,7.16,4.62l1.1.62c2.2,1.23,4.52,2.4,7,3.49l1.18.51c2.13.91,4.35,1.76,6.66,2.53l.57.19h0l.92-.16c7.68-1.5,12.31-8.43,13.1-13.51,0,0,0-.11,0-.32a6.71,6.71,0,0,0-.31-3.34,24.25,24.25,0,0,0-3.68-7.95,32.38,32.38,0,0,0-2.16-4.29,87.29,87.29,0,0,0-.13-10.55c-.52-5.34-2.23-9.49-2-12.35,0,0,2.55-1.18,4.64-10,.26-1.09.51-2.3.75-3.64l.19,0c1.1-.36,6.73-2.38,8.95-7.37,2.47-5.54,4.94-6.34,6.26-5.48s6.91,6.17,15.1,5.76c0,0,.23.54.68,1.35h0a26.75,26.75,0,0,0,2.07,3.22,14.94,14.94,0,0,0,5.14,4.54,54.6,54.6,0,0,1,.77,11.33c-.12,5.12.46,11.44,2.24,15.3.33,1.82.81,3.44.81,3.44a24.52,24.52,0,0,0,2.13,8.49,6.79,6.79,0,0,0,1.86,2.79,2.38,2.38,0,0,0,.24.23c3.8,3.46,11.76,5.94,18.68,2.29l.81-.46h0l.33-.51c1.31-2.05,2.5-4.1,3.59-6.15.2-.38.4-.76.59-1.14,1.22-2.38,2.29-4.75,3.24-7.09l.46-1.18a83.87,83.87,0,0,0,2.67-8.09l.32-1.22c.6-2.35,1.08-4.63,1.43-6.81.07-.43.14-.85.2-1.27a69.88,69.88,0,0,0,.66-7c0-.45,0-.88,0-1.31A39.28,39.28,0,0,0,273.24,137.39Zm-103.08-6.56h0Zm15.42-24.11-.19,0a1,1,0,0,1-.41-.16.61.61,0,0,1-.16-.16l0-.1a.57.57,0,0,1,0-.22,1.91,1.91,0,0,1,.24-.8l.16-.29c.12-.19.25-.37.38-.55l.09-.13.19-.23c.28-.33.5-.56.5-.56A13.76,13.76,0,0,0,185.58,106.72ZM228,97.21h0s3.39-.6,3.92.16c.37.54.12,1.37-1.23,1.88a7.37,7.37,0,0,1-2,.39c-.17-.64-.39-1.36-.68-2.16Z"/></g></g></svg>